<svg version="1.0" xmlns="http://www.w3.org/2000/svg" width="500.000000ptpx" height="500.000000ptpx" viewBox="0 0 500.000000 500.000000" preserveAspectRatio="xMidYMid meet" transform="rotate(0) scale(1, 1)">

<g transform="translate(0.000000,500.000000) scale(0.100000,-0.100000)" fill="#2872e1" stroke="none">
<path d="M3050 3945 c-283 -44 -551 -206 -729 -440 -73 -97 -164 -288 -196&#10;-410 -21 -85 -25 -123 -26 -262 l-1 -163 -135 0 c-131 0 -137 1 -192 30 -31&#10;17 -101 71 -156 121 -227 205 -364 266 -474 209 -73 -37 -101 -106 -70 -173&#10;12 -26 66 -57 100 -57 34 0 87 -27 94 -49 3 -12 3 -30 0 -41 -11 -34 -36 -40&#10;-101 -23 -85 22 -145 13 -249 -39 -78 -39 -88 -47 -91 -73 -2 -17 -8 -73 -13&#10;-125 -7 -77 -18 -120 -59 -224 l-49 -129 -48 -18 c-88 -33 -145 -115 -145&#10;-207 0 -28 -10 -45 -50 -88 -63 -66 -80 -106 -80 -183 0 -158 142 -264 296&#10;-221 64 18 136 87 185 176 23 41 42 74 44 74 1 0 12 -27 24 -60 27 -73 107&#10;-160 166 -181 60 -20 170 -16 235 9 l55 22 1130 0 c1081 0 1132 1 1165 19 65&#10;34 74 58 80 199 l5 127 28 9 c18 7 46 6 85 -2 76 -16 101 -15 153 3 39 14 48&#10;14 88 0 60 -20 95 -19 168 6 l61 22 72 -23 c57 -18 84 -22 136 -17 117 11 231&#10;83 274 172 28 59 21 100 -25 145 -33 32 -34 34 -28 95 6 67 -8 107 -55 157&#10;-52 56 -201 75 -285 37 -24 -11 -30 -10 -53 12 -14 13 -35 41 -46 62 -19 39&#10;-19 39 3 130 45 188 34 427 -28 606 -98 287 -309 529 -580 665 -194 97 -457&#10;136 -683 101z m464 -226 c20 -12 36 -23 36 -26 0 -2 -11 -21 -25 -41 -14 -20&#10;-25 -41 -25 -47 0 -11 67 -51 74 -44 2 2 15 23 30 47 14 23 28 42 30 42 7 0&#10;96 -52 96 -56 0 -3 -38 -76 -85 -163 -47 -87 -85 -165 -85 -173 0 -21 -78 -94&#10;-89 -83 -31 33 -181 228 -181 236 0 4 10 29 22 54 19 39 33 52 90 82 38 19 68&#10;39 68 44 0 13 -6 11 -51 -12 -23 -11 -43 -18 -46 -16 -8 9 81 176 94 177 6 0&#10;28 -9 47 -21z m89 -45 c12 -12 -33 -85 -50 -82 -24 5 -25 19 -3 56 19 30 39&#10;40 53 26z m219 -125 c29 -18 63 -38 76 -46 l23 -14 -25 -46 c-15 -25 -26 -47&#10;-26 -48 0 -2 16 -12 35 -24 l35 -20 17 25 c10 14 25 34 34 46 l16 21 40 -23&#10;c47 -26 47 -21 -16 -137 -36 -66 -51 -72 -51 -20 0 34 -15 66 -25 55 -4 -4 -2&#10;-38 5 -77 l12 -71 -50 -92 c-27 -51 -75 -142 -107 -203 -102 -195 -96 -187&#10;-177 -228 -68 -35 -77 -37 -135 -31 l-63 7 -17 53 -16 53 32 76 c24 59 45 90&#10;91 135 33 32 60 63 60 70 0 7 -9 24 -19 39 -19 26 -19 27 4 81 13 30 30 56 39&#10;58 22 5 20 15 -4 30 -39 24 -30 49 108 302 33 62 32 60 42 60 6 0 33 -14 62&#10;-31z m-962 -86 c-18 -61 -42 -123 -47 -123 -6 0 -117 91 -121 99 -2 6 135 48&#10;165 50 8 1 9 -7 3 -26z m76 -8 c8 -21 14 -68 14 -120 0 -75 -2 -85 -18 -85&#10;-23 0 -92 57 -92 77 0 31 55 163 68 163 7 0 20 -16 28 -35z m1038 6 c9 -15&#10;-27 -71 -46 -71 -26 0 -30 16 -11 49 17 30 46 41 57 22z m-777 -32 l52 -10&#10;131 -165 c71 -90 130 -169 130 -175 0 -35 -132 -147 -161 -137 -7 2 -36 76&#10;-64 164 -28 87 -55 157 -61 154 -5 -3 -8 -7 -8 -10 1 -3 45 -141 98 -307 53&#10;-166 96 -309 96 -317 0 -11 -9 -16 -28 -16 -41 0 -126 -46 -171 -92 -63 -64&#10;-76 -99 -76 -210 -1 -82 -4 -101 -21 -125 -12 -15 -28 -43 -38 -60 -19 -38&#10;-34 -40 -88 -15 -39 17 -39 17 -33 65 4 30 17 64 37 92 17 25 30 46 27 48 -23&#10;19 -100 66 -125 76 -18 7 -63 11 -110 9 l-79 -3 -16 55 c-10 30 -36 127 -59&#10;215 -81 307 -102 380 -110 388 -20 21 -14 -18 20 -143 21 -74 41 -150 45 -167&#10;l7 -33 -74 1 c-95 1 -142 17 -146 51 -2 14 6 112 17 218 16 150 25 197 38 213&#10;24 26 193 160 197 156 1 -2 21 -36 43 -74 49 -85 74 -109 102 -100 18 5 23 -5&#10;55 -107 19 -62 40 -134 47 -160 6 -27 17 -48 23 -48 7 0 36 7 65 16 63 18 63&#10;5 3 209 -37 127 -37 130 -18 140 28 14 38 59 32 148 l-5 78 87 -6 c48 -4 110&#10;-11 139 -16z m-459 -59 c45 -37 62 -57 62 -75 0 -30 -29 -105 -40 -105 -12 0&#10;-64 69 -89 117 -23 47 -28 113 -8 113 7 0 40 -23 75 -50z m152 -139 c20 -44&#10;98 -321 91 -325 -3 -2 -23 -7 -43 -11 -36 -7 -37 -6 -48 34 -6 22 -26 91 -45&#10;153 -38 122 -40 142 -25 183 10 26 10 26 34 8 14 -10 30 -29 36 -42z m670&#10;-214 c0 -39 -136 -147 -184 -147 -13 0 -33 37 -24 45 1 1 23 13 47 25 25 12&#10;65 44 90 70 47 50 71 52 71 7z m-2271 -3 c63 -25 65 -65 2 -43 -22 8 -40 8&#10;-62 0 -73 -25 -122 -3 -84 39 23 25 88 27 144 4z m119 -67 c2 -12 -3 -17 -17&#10;-17 -15 0 -21 6 -21 21 0 25 33 22 38 -4z m2022 -104 c-5 -10 -15 -31 -21 -48&#10;l-11 -30 -13 35 c-11 30 -11 37 3 48 9 6 24 12 34 12 14 0 16 -4 8 -17z m-920&#10;-152 c87 -6 95 -8 98 -27 2 -15 -4 -23 -20 -28 -44 -11 -148 -6 -188 10 -34&#10;14 -40 21 -40 45 0 27 1 28 28 17 15 -6 70 -14 122 -17z m1304 -143 c8 -13 -2&#10;-85 -38 -288 -26 -149 -45 -282 -42 -296 9 -33 48 -32 85 4 26 24 32 41 50&#10;143 12 64 21 130 21 147 0 31 1 32 43 32 24 0 48 -5 55 -12 16 -16 15 -67 -3&#10;-161 -20 -103 -20 -166 0 -173 22 -9 68 13 84 39 11 17 49 207 51 249 0 4 -12&#10;8 -27 10 -20 2 -28 9 -28 23 0 15 8 21 32 23 36 4 40 13 45 87 3 40 3 40 46&#10;43 62 5 76 -10 68 -75 l-6 -53 45 0 c30 0 45 -4 45 -13 0 -23 -23 -37 -61 -37&#10;-44 0 -40 8 -65 -148 -20 -123 -16 -145 27 -150 13 -1 39 7 57 18 31 19 32 22&#10;32 85 0 37 7 82 16 103 20 49 70 100 119 123 73 34 191 19 209 -26 13 -36 6&#10;-84 -18 -112 -30 -35 -72 -58 -148 -79 -63 -17 -71 -31 -42 -72 21 -30 66 -52&#10;106 -52 39 0 104 29 135 59 43 41 57 21 23 -34 -64 -103 -290 -127 -360 -38&#10;l-21 26 -32 -31 c-39 -37 -75 -52 -129 -52 -33 0 -46 6 -73 35 l-33 34 -18&#10;-20 c-47 -52 -131 -65 -178 -28 -14 11 -26 27 -26 34 0 9 -18 1 -51 -21 -34&#10;-22 -63 -34 -86 -34 -41 0 -93 25 -93 45 0 20 -9 19 -76 -12 -119 -54 -285&#10;-40 -353 29 -73 75 -38 211 66 254 l31 14 -28 31 c-75 79 -41 206 69 262 74&#10;37 180 39 232 4 67 -44 88 -142 42 -189 -23 -22 -82 -33 -103 -19 -13 9 -13&#10;14 3 40 21 37 22 104 1 125 -35 36 -107 7 -139 -54 -33 -63 -6 -170 43 -170&#10;56 -1 49 -45 -9 -53 -99 -13 -154 -111 -102 -181 27 -36 55 -46 137 -46 114 0&#10;176 28 176 80 0 16 6 61 14 101 36 180 66 364 66 398 0 21 3 41 7 45 14 14 96&#10;2 107 -16z m-2504 -88 c30 -30 26 -90 -25 -380 -70 -391 -72 -415 -50 -440 36&#10;-39 97 -19 150 51 32 44 48 46 53 6 4 -33 -19 -77 -65 -123 -96 -96 -247 -99&#10;-304 -7 -24 38 -29 117 -15 226 l7 57 -109 0 -110 0 -30 -84 c-46 -127 -72&#10;-176 -117 -223 -38 -39 -46 -43 -89 -43 -64 0 -96 31 -96 94 0 68 5 74 55 69&#10;39 -5 46 -2 88 36 39 36 101 139 91 150 -2 2 -21 -4 -43 -13 -39 -15 -41 -15&#10;-51 4 -16 30 -12 67 13 95 17 20 34 27 79 32 l56 6 53 151 c63 183 80 217 132&#10;273 54 58 119 82 225 82 69 1 85 -2 102 -19z m2709 6 c21 -26 9 -79 -21 -94&#10;-42 -20 -78 -1 -78 42 0 19 7 42 16 50 19 20 68 21 83 2z m-2248 -191 c27 -14&#10;31 -14 45 0 9 9 33 15 61 15 42 0 45 -2 39 -22 -6 -22 -35 -180 -90 -485 -14&#10;-79 -26 -161 -26 -183 l0 -40 -50 0 c-79 0 -81 8 -39 223 26 133 26 131 -17&#10;102 -75 -51 -167 -21 -195 62 -25 76 8 221 64 282 50 55 149 76 208 46z m337&#10;3 c17 -17 15 -43 -10 -191 -23 -140 -20 -160 26 -139 46 21 136 221 136 303 0&#10;39 0 39 39 39 22 0 46 -3 55 -6 20 -8 21 -61 1 -169 -28 -156 -18 -191 45&#10;-165 32 13 35 22 44 107 6 60 37 136 69 172 49 53 148 76 205 47 24 -12 30&#10;-12 47 0 10 8 39 14 63 14 41 0 44 -2 38 -22 -4 -13 -18 -85 -32 -161 -27&#10;-149 -25 -167 21 -167 21 0 75 44 75 61 0 5 7 9 15 9 36 0 -2 -82 -56 -123&#10;-62 -45 -157 -29 -180 30 l-9 25 -21 -26 c-29 -36 -70 -56 -120 -56 -33 0 -47&#10;6 -75 34 -33 33 -34 33 -51 14 -28 -31 -68 -48 -111 -48 -49 0 -79 23 -96 74&#10;l-13 38 -23 -37 c-46 -75 -145 -101 -195 -50 -32 31 -32 74 -3 263 l22 142 41&#10;0 c23 0 46 -5 53 -12z"/>
<path d="M3750 3510 c-15 -28 4 -60 35 -60 30 0 46 27 34 58 -11 28 -54 30&#10;-69 2z m48 -17 c-4 -22 -22 -20 -26 1 -2 10 3 16 13 16 10 0 15 -7 13 -17z"/>
<path d="M2844 3189 c-10 -17 13 -36 27 -22 12 12 4 33 -11 33 -5 0 -12 -5&#10;-16 -11z"/>
<path d="M2882 3064 c4 -21 22 -23 26 -1 2 10 -3 17 -13 17 -10 0 -15 -6 -13&#10;-16z"/>
<path d="M2910 2945 c0 -8 9 -15 20 -15 11 0 20 7 20 15 0 8 -9 15 -20 15 -11&#10;0 -20 -7 -20 -15z"/>
<path d="M4500 2212 c-28 -28 -59 -106 -47 -118 3 -3 28 6 56 21 76 42 106&#10;125 44 125 -14 0 -37 -13 -53 -28z"/>
<path d="M1105 2391 c-25 -11 -67 -50 -89 -83 -18 -28 -137 -350 -131 -356 4&#10;-5 131 -21 166 -22 25 0 25 0 63 218 20 119 39 225 41 235 3 18 -16 22 -50 8z"/>
<path d="M1688 2212 c-40 -24 -71 -95 -76 -175 -5 -75 5 -97 44 -97 35 0 90&#10;91 110 180 15 67 15 72 -1 90 -22 24 -41 25 -77 2z"/>
<path d="M2635 2208 c-43 -33 -75 -112 -75 -184 0 -157 119 -75 161 110 11 51&#10;10 58 -6 76 -23 26 -46 25 -80 -2z"/>
<path d="M1557 3112 c-35 -39 -10 -84 62 -112 18 -7 55 -35 81 -61 26 -27 50&#10;-46 53 -42 14 14 6 78 -15 119 -11 24 -35 56 -51 71 -24 23 -28 24 -19 7 13&#10;-26 6 -36 -17 -24 -9 5 -24 11 -35 14 -12 4 -17 13 -13 26 7 26 -23 27 -46 2z"/>
<path d="M1890 3061 c0 -10 20 -35 45 -55 l45 -37 0 26 c0 37 -17 65 -35 59&#10;-8 -4 -18 1 -21 10 -9 22 -34 20 -34 -3z"/>
<path d="M776 3034 c-10 -27 12 -42 64 -46 56 -3 64 8 29 41 -18 16 -26 18&#10;-42 9 -16 -8 -22 -8 -25 1 -5 16 -19 14 -26 -5z"/>
<path d="M915 2840 c-4 -6 -15 -8 -26 -5 -20 7 -23 -2 -13 -29 8 -22 72 -42&#10;87 -27 9 9 8 18 -3 38 -17 30 -35 39 -45 23z"/>
<path d="M1961 2834 c6 -35 -36 -51 -43 -16 -3 14 -6 13 -17 -7 -18 -33 0 -68&#10;44 -87 78 -32 114 -8 78 55 -19 33 -66 75 -62 55z"/>
<path d="M763 2733 c-33 -6 -29 -33 5 -33 34 0 57 14 48 29 -7 11 -13 12 -53&#10;4z"/>
</g>
</svg>